<?xml version="1.0" encoding="UTF-8"?>
<svg id="Layer_1" xmlns="http://www.w3.org/2000/svg" version="1.1" viewBox="0 0 32 32" width="30" height="30">
  <!-- Generator: Adobe Illustrator 29.3.0, SVG Export Plug-In . SVG Version: 2.1.0 Build 146)  -->
  <defs>
    <style>
      .st0 {
        fill: #055747;
      }
    </style>
  </defs>
  <path class="st0" d="M16,3h0c-7.2,0-13,5.8-13,13s5.8,13,13,13,13-5.8,13-13c0-7.2-5.8-13-13-13ZM27,16c0,1-.1,2-.4,3h-4.8c.3-2,.3-4,0-6h4.8c.3,1,.4,2,.4,3ZM12.8,21h6.5c-.6,2.1-1.8,4-3.2,5.6-1.5-1.6-2.6-3.5-3.2-5.6ZM12.3,19c-.3-2-.3-4,0-6h7.5c.3,2,.3,4,0,6h-7.5ZM5,16c0-1,.1-2,.4-3h4.8c-.3,2-.3,4,0,6h-4.8c-.3-1-.4-2-.4-3ZM19.2,11h-6.5c.6-2.1,1.8-4,3.2-5.6,1.5,1.6,2.6,3.5,3.2,5.6ZM25.8,11h-4.5c-.6-2.1-1.5-4-2.8-5.7,3.1.8,5.8,2.8,7.2,5.7h0ZM13.4,5.3c-1.3,1.7-2.2,3.6-2.8,5.7h-4.5c1.5-2.9,4.1-4.9,7.2-5.7ZM6.2,21h4.5c.6,2.1,1.5,4,2.8,5.7-3.1-.8-5.8-2.8-7.2-5.7ZM18.6,26.7c1.3-1.7,2.2-3.6,2.8-5.7h4.5c-1.5,2.9-4.1,4.9-7.2,5.7Z"/>
</svg>
