<?xml version="1.0" encoding="UTF-8"?>
<svg id="Layer_1" xmlns="http://www.w3.org/2000/svg" version="1.1" viewBox="0 0 32 32" width="50" height="50">
  <!-- Generator: Adobe Illustrator 29.3.0, SVG Export Plug-In . SVG Version: 2.1.0 Build 146)  -->
  <defs>
    <style>
      .st0 {
        fill: #054538;
      }

      .st1 {
        fill: #f7f2e5;
      }
    </style>
  </defs>
  <path class="st0" d="M16,30c-7.7,0-14-6.3-14-14S8.3,2,16,2s14,6.3,14,14-6.3,14-14,14Z"/>
  <path class="st1" d="M16,0C7.2,0,0,7.2,0,16s7.2,16,16,16,16-7.2,16-16S24.8,0,16,0ZM17,29.9v-10.9h3c.6,0,1-.4,1-1s-.4-1-1-1h-3v-3c0-1.1.9-2,2-2h2c.6,0,1-.4,1-1s-.4-1-1-1h-2c-2.2,0-4,1.8-4,4v3h-3c-.6,0-1,.4-1,1s.4,1,1,1h3v10.9c-7.3-.5-13-6.6-13-13.9S8.3,2,16,2s14,6.3,14,14-5.7,13.4-13,13.9Z"/>
</svg>
