<?xml version="1.0" encoding="UTF-8"?>
<svg id="Layer_1" xmlns="http://www.w3.org/2000/svg" version="1.1" viewBox="0 0 32 32">
  <!-- Generator: Adobe Illustrator 29.3.0, SVG Export Plug-In . SVG Version: 2.1.0 Build 146)  -->
  <defs>
    <style>
      .st0 {
        fill: #054538;
      }

      .st1 {
        stroke: #fff;
        stroke-miterlimit: 10;
        stroke-width: .5px;
      }

      .st1, .st2 {
        fill: #fff;
      }
    </style>
  </defs>
  <path class="st0" d="M16,0C7.2,0,0,7.2,0,16s7.2,16,16,16,16-7.2,16-16S24.8,0,16,0Z"/>
  <path class="st2" d="M16,0C7.2,0,0,7.2,0,16s7.2,16,16,16,16-7.2,16-16S24.8,0,16,0ZM16,30c-7.7,0-14-6.3-14-14S8.3,2,16,2s14,6.3,14,14-6.3,14-14,14Z"/>
  <path class="st1" d="M24,16c0,4.4-3.6,8-8,8-4.4,0-8-3.6-8-8,0-4.4,3.6-8,8-8,2.4,0,4.7,1.1,6.2,2.9.2.3.2.7,0,.9-.3.2-.7.2-.9,0,0,0,0,0,0,0-2.3-2.8-6.5-3.2-9.4-.9-2.8,2.3-3.2,6.5-.9,9.4,2.3,2.8,6.5,3.2,9.4.9,1.4-1.1,2.2-2.7,2.4-4.5h-6.6c-.4,0-.7-.3-.7-.7s.3-.7.7-.7h7.3c.4,0,.7.3.7.7Z"/>
</svg>