<?xml version="1.0" encoding="UTF-8"?>
<svg id="Layer_1" xmlns="http://www.w3.org/2000/svg" version="1.1" viewBox="0 0 380 70">
  <!-- Generator: Adobe Illustrator 29.3.0, SVG Export Plug-In . SVG Version: 2.1.0 Build 146)  -->
  <defs>
    <style>
      .st0 {
        fill: #054539;
      }

      .st1 {
        fill: #055747;
      }

      .st2 {
        fill: #f8f2e6;
      }
    </style>
  </defs>
  <rect class="st0" width="380" height="70"/>
  <path class="st2" d="M64,20.4c0-.8-1.9-1.2-2.5-1,0,0-.1,0-.2.1-1.4,2-2.7,4-4.1,6-1.4,1.9-4.9,6.7-7,7.4-2.7.9-1.9-1.5-1.2-3,1.4-2.9,3.4-6.1,4.8-9,.1-.3.2-.5.2-.8,0-.2-.2-.4-.4-.5-.7-.3-1.8-.7-2.3-.3-.2.1-2.3,4.2-2.8,4.9-.5,1-1,1.7-1.6,2.6-1.4,1.9-3.1,3.5-5.3,4.9-2.6,1.6-7.4,2.8-7.3-1.6,0,0,0,0,0,0,.9,0,1.9-.1,2.9-.2,3.8-.6,9.4-3.4,8.9-8-.3-2.7-4.2-2.2-6.1-1.7-3.3.9-7,4.1-8.4,7.2-1.4,3-1.6,7.3,2.2,8.5,3.8,1.2,7.8-.9,10.8-3.5-.7,6,5.3,3.8,8.2,1.2,0,0,.1,0,0,0l-4.8,10.5c-.1.2,0,.5.3.6l2.3.5c.4,0,.7-.3.8-.6.9-2.3,2.2-5.5,3.4-8,2.6-5.6,5.6-10.9,9-16.1,0,0,0-.1,0-.2ZM37,24.8c1.6-1.6,5.1-4,6.5-3,.4.3.2,1.4,0,1.8-.5.9-1.9,1.9-3.4,2.6-1.5.7-3.2,1.1-4.5,1.1,0,0-.2,0-.1-.2.1-.5,1.2-1.9,1.7-2.4ZM88.1,36c.2.1.5.2.8.2s.5,0,.8-.2c.2-.1.4-.3.6-.6.1-.2.2-.5.2-.8s0-.4-.1-.6c0-.2-.2-.3-.3-.5s-.3-.2-.5-.3c-.2,0-.4-.1-.6-.1s-.5,0-.8.2c-.2.1-.4.3-.6.6-.1.2-.2.5-.2.8s0,.5.2.8c.1.2.3.4.6.6ZM87.9,34.1c.1-.2.2-.3.4-.4.2-.1.4-.2.6-.2s.4,0,.6.2c.2.1.3.2.4.4.1.2.2.4.2.6s0,.4-.2.6c-.1.2-.2.3-.4.4-.2.1-.4.2-.6.2s-.4,0-.6-.2c-.2-.1-.3-.2-.4-.4-.1-.2-.2-.4-.2-.6s0-.4.2-.6ZM88.3,31c.8-.9,2.5-2.8,1.9-4-.3-.6-1-.7-1.4-.2-2,2.9-3.8,4.5-3.8,4.5.7-1.8.3-3.7.4-5.6,0-1.2.2-3.5.7-4.6.4-.8,1.5-1.6.5-2.5-1.3-1.3-4.1,1.6-4.9,2.5-3.3,3.7-5.3,7.9-9.8,10.6-2.6,1.6-7.4,2.8-7.3-1.6,0,0,0,0,0,0,.9,0,1.9-.1,2.9-.2,3.8-.6,9.4-3.4,8.9-8-.3-2.7-4.2-2.2-6.1-1.7-3.3.9-7,4.1-8.4,7.2-1.4,3-1.6,7.3,2.2,8.5,5.1,1.6,10.4-2.7,13.6-6.3,1.8-2.1,3.2-4.6,5.3-6.5-.6,2.3-.6,8.5-2.8,9.8-.7.4-1.3.6-2,.1-.3-.2-.5-.5-.7-.6-1.6-.8-2,2.3,0,3.4,3.4,1.9,8.7-2.2,10.8-4.7ZM67.4,24.8c1.6-1.6,5.1-4,6.5-3,.4.3.2,1.4,0,1.8-.5.9-1.9,1.9-3.4,2.6-1.5.7-3.2,1.1-4.5,1.1,0,0-.2,0-.1-.2.1-.5,1.2-1.9,1.7-2.4ZM88.7,34.9h.2l.3.6h.4l-.4-.6c0,0,.2-.1.2-.2,0,0,0-.2,0-.3,0-.2,0-.3-.2-.4s-.3-.1-.4-.1h-.7v1.6h.4v-.6ZM88.7,34.2h.3c0,0,0,0,.1,0,0,0,0,0,0,.1s0,0,0,.1c0,0,0,0-.1,0h-.3v-.4ZM29.5,40.5l-7-11.8-4.9,10.3c-.4.5-2.3,0-3.2-.4-.3-.1-.4-.5-.2-.8l11.7-24.4c.5-.5,3.2.3,3.2.9l-4.4,9.6,14.5-10.2c1-.4,3.7,0,3.2.8l-16.5,12.6,6.5,12.2c.6,1.1-2.3,1.2-2.8,1.1ZM102.8,13.4h.8v28.5h-.8V13.4ZM159.4,39.3c-2.7.9-5.5,1.4-7.9,1.4-4.2,0-7.5-1.2-9.7-3.5-1-1.1-1.8-2.4-2.4-3.9,0,0,0,0,0,0l-4.9-11.9-3.8,9.4,4.1,9.8h-3.5l-7.9-19.2-7.9,19.2h-3.5l11.4-27.3,5.6,13.3,5.6-13.3,4.2,10.1c.5-2.6,1.5-4.7,3.1-6.4,2.3-2.4,5.5-3.6,9.7-3.6s4,.2,6.1.6v3.2c-2.5-.7-4.6-1.1-6.1-1.1-2.9,0-5.3,1-6.9,2.9-1.6,1.9-2.5,4.6-2.5,8s.9,6.1,2.6,8c1.7,1.9,4.3,2.9,7.3,2.9s2.6-.2,4.1-.6v-8.5h3.3v10.5ZM25,50.8l-1.9,4.6h.7l.6-1.4h1.9l.6,1.4h.7l-1.9-4.6h-.7ZM24.5,53.5l.8-1.9.7,1.9h-1.5ZM49.2,50.7c-1.3,0-2.6.7-2.6,2.4s1,2.4,2.5,2.4,2.6-1.1,2.6-2.4-1.1-2.4-2.6-2.4ZM49.2,55c-1.3,0-1.8-1-1.8-1.9s.5-1.9,1.8-1.9,1.8.8,1.8,1.9c0,.9-.4,2-1.8,2ZM147.6,50.7c-1.3,0-2.6.7-2.6,2.4s1,2.4,2.5,2.4,2.6-1.1,2.6-2.4-1.1-2.4-2.6-2.4ZM147.6,55c-1.3,0-1.8-1-1.8-1.9s.5-1.9,1.8-1.9,1.8.8,1.8,1.9c0,.9-.4,2-1.8,2ZM18.1,50.8h.9v4.6h-.7v-3.8c0,0-1.5,3.8-1.5,3.8h-.5l-1.6-3.8v3.8c0,0-.6,0-.6,0v-4.6h.9l1.6,3.8,1.6-3.8ZM35.6,52.1c0-.4-.2-.8-.5-1.1-.4-.3-.8-.3-1.5-.3h-1.9v4.6h.7v-1.9h1.3l1.4,1.9h.8l-1.4-2c.2,0,1.2-.2,1.2-1.3ZM33.6,52.9h-1.3v-1.6h1.3c.4,0,.7,0,1,.2.3.2.3.5.3.6,0,.3-.2.6-.6.7-.2,0-.4,0-.6,0ZM39.4,50.8h3.7v.5h-1.5v4h-.7v-4h-1.5v-.5ZM159.4,50.8v4.6h-.7v-3.8c0,0-1.5,3.8-1.5,3.8h-.5l-1.6-3.8v3.8c0,0-.6,0-.6,0v-4.6h.9l1.6,3.8,1.6-3.8h.9ZM65.1,50.8h3.3v.5h-2.6v1.3h2.4v.5h-2.4v2.2h-.7v-4.6ZM88.2,53.1c0,.9.5,1.9,1.9,1.9s1.8-.3,1.8-1.5h-1.8v-.5h2.4v2.4h-.6v-.6c-.4.6-1.2.8-1.9.8-1.6,0-2.5-1-2.5-2.3s.8-2.5,2.6-2.5,1.3.2,1.8.6c.3.3.5.6.6.7l-.7.2c0-.1-.1-.3-.4-.5-.2-.2-.6-.4-1.3-.4-1.4,0-1.9,1.1-1.9,1.9ZM126.8,50.9c-.3,0-.6,0-.8,0h-2.2v4.6h.7v-1.9h1.5c.3,0,.6,0,.8,0,.7-.2.9-.8.9-1.3s-.3-1-.9-1.2ZM126.8,52.7c-.2.2-.5.2-.9.2h-1.4v-1.6h1.6c.2,0,.5,0,.7.2.2.2.3.4.3.6,0,.2,0,.5-.2.6ZM131,54.6h.7v.7h-.7v-.7ZM108.1,50.7c-1.3,0-2.6.7-2.6,2.4s1,2.4,2.5,2.4,2.6-1.1,2.6-2.4-1.1-2.4-2.6-2.4ZM108.1,55c-1.3,0-1.8-1-1.8-1.9s.5-1.9,1.8-1.9,1.8.8,1.8,1.9c0,.9-.4,2-1.8,2ZM101.2,52.1c0-.4-.2-.8-.5-1.1-.4-.3-.8-.3-1.5-.3h-1.9v4.6h.7v-1.9h1.3l1.4,1.9h.8l-1.4-2c.2,0,1.2-.2,1.2-1.3ZM99.3,52.9h-1.3v-1.6h1.3c.4,0,.7,0,1,.2.3.2.3.5.3.6,0,.3-.2.6-.6.7-.2,0-.4,0-.6,0ZM72.6,50.8h3.3v.5h-2.6v1.3h2.4v.5h-2.4v2.2h-.7v-4.6ZM118.3,50.8h.7v2.9c0,.2,0,.4,0,.6-.1.5-.7,1.2-1.9,1.2s-1.1,0-1.6-.6c-.3-.4-.3-.7-.3-1.2v-2.8h.7v2.8c0,.4,0,.8.3,1.1.3.3.7.4,1,.4.6,0,1.1-.3,1.2-.8,0-.2,0-.4,0-.7v-2.7ZM59.6,50.8h.6v4.6h-.6l-2.8-3.7v3.7c0,0-.6,0-.6,0v-4.6h.6l2.8,3.7v-3.7ZM140.2,53.6h.7c-.2.9-1,1.9-2.5,1.9s-2.5-1.1-2.5-2.4.8-2.4,2.6-2.4,2.2,1.1,2.3,1.4h-.7c0,0-.1-.2-.3-.4-.2-.3-.7-.5-1.3-.5s-1.1.2-1.4.6c-.3.4-.4.8-.4,1.3,0,1.1.6,1.9,1.8,1.9s1.5-.4,1.7-1.3ZM83,50.8h.8l-1.8,2.5v2.1h-.7v-2.1l-1.8-2.5h.8l1.3,1.9,1.4-1.9Z"/>
  <path class="st2" d="M265.5,46.5v.4h.7c0,0,0,.2,0,.3h-.8v.4h.9v.2h-1.1v-1.5h1.1c0,0,0,.2,0,.3h-.8ZM267.1,45v-1.3h.5v-.3h-1.2v.3h.5v1.3h.3ZM265.9,49.8l.4.6c0,0-.2,0-.3,0,0,0-.3-.5-.4-.5h-.3s0,.5,0,.5h-.3v-1.5c.3,0,.6,0,.8,0,.5,0,.6.8,0,.9ZM265.8,49.1c-.1,0-.3,0-.5,0v.5h.4c.3,0,.4-.4,0-.5ZM251.2,44.5l.4.6h-.3s-.4-.5-.4-.5h-.3s0,.5,0,.5c0,0-.2,0-.3,0h0v-1.5h0c.2,0,.5,0,.8,0,.6,0,.6.8.1.9ZM251.1,43.8h-.4v.5h.5s.1,0,.1,0c.1-.2,0-.4-.2-.4ZM265.5,44.7h-.7s-.2.3-.2.3h-.3s.6-1.5.6-1.5h.3s.6,1.5.6,1.5h-.3s-.1-.4-.1-.4ZM265.4,44.4l-.2-.6c-.1.2-.2.4-.3.6h.5ZM250.9,49.7h.2s0-.3,0-.3h.4v-.2h-.4c0-.1.4-.1.4-.1v-.2h-.7v.8ZM249.6,50.4h2v-.3h-2c0,0,0,.2,0,.3ZM269.4,42.8v-.3h.1,0c0,0-.3,0-.3,0h0c0,0,.1,0,.1,0v.3h0ZM267.3,48.9h-.3v1.5h0s1,0,1,0v-.3h-.8v-1.3ZM269.4,44.8h-.9v-.4h.7c0,0,0-.2,0-.3h-.8v-.4h.8v-.3h-1.1v1.5h0s1.1,0,1.1,0c0,0,0-.2,0-.3ZM264.9,36.5c.4,0,.6-.8,0-.7-.4,0-.6.8,0,.7ZM270,49.2c.4.5,0,1.2-.6,1.2h-.6v-1.5h.7c.1,0,.4.2.5.3ZM269.7,49.2s-.1,0-.2,0h-.4v1h.4s.2,0,.2-.1c.2-.2.2-.6,0-.8ZM251.8,47c0-.6.5-.8.9-.4l.2-.2c-.2-.2-.5-.3-.8-.2-.3,0-.6.4-.6.7,0,.8.9,1.2,1.4.6l-.2-.2c-.3.3-.9.2-.9-.3ZM267.4,46.7c-.1-.3.5-.3.6,0v-.2c0-.2-.3-.2-.5-.2-.4,0-.5.6-.2.8.2,0,.7.1.6.4,0,.2-.6,0-.7,0l-.2.2c.3.3,1.2.4,1.2-.2,0-.5-.8-.4-.8-.6ZM271.2,37h.5c0,.2-.1.4-.2.6-.8,1.9-1.9,5.6-4.6,5.2-1-.1-1.4-1-.6-1.7h.1c-.4.7,0,1.4.6,1.5,1.3.1,2.1-.9,2.7-1.9.1-.2.4-.7.4-.9,0,0,0,0,0,0-.2.3-.5.6-.8.7-.2.1-.4.2-.7,0-.4-.3-.3-.9-.2-1.3-.4.4-1,1.3-1.6,1.4-.6,0-.3-.7-.2-1,.1-.4.4-.9.5-1.3,0-.2.3-.8,0-.9-.3-.1-.6.2-.8.4-.7.8-.9,1.9-1.4,2.8h-.5l.4-1.1c-.3.3-1,1.2-1.5,1.1-.5,0-.2-.9,0-1.2-.4.4-1.1,1.2-1.7,1.2-.5,0-.2-.7-.2-1-.2.3-.8,1-1.2,1-.6,0-.6-1-.5-1.4-.3.3-.6.7-.9,1-.7.6-1.3.5-.9-.6-.3.3-.8.9-1.2.9-.6,0-.6-1-.5-1.4-.4.5-1,1-1.6,1.2-.9.4-1.5,0-1.4-1-.4.3-.7.8-1.2,1-.8.4-2.1-.1-3-.3-.2.2-1,.7-1.2.3-.2-.4.4-.7.8-.7.1,0,.3,0,.4,0,.1-.2.3-.5.4-.7.6-1.5,1.1-4.2,3.1-4.3,2.1-.2,1.3,2.6-.2,2.9-.3,0-.6,0-.7-.2h.2c.1.1.5,0,.7,0,.6-.3,1.1-1.4.8-2.1-.1-.4-.5-.4-.9-.3-1.4.3-1.8,3.3-2.6,4.4l-.4.6c.8,0,1.6.4,2.5.3.5,0,.9-.4,1.2-.7.3-.3.2-.4.4-.7.3-.7.7-1.3,1.4-1.6.8-.3,1.3.2.9,1-.3.8-1.1,1.1-2,1.2,0,0,0,.4,0,.5,0,.2,0,.5.4.6.6,0,1.6-.6,2-1.1.3-.4.5-.9.8-1.3.4-.5,1.4-1.3,2-.6v-.2h.6c-.3.7-.6,1.4-.8,2,0,.2-.4,1-.3,1.1,0,0,0,0,.1,0,.2,0,1-.9,1.2-1.1.3-.4.4-.7.6-1.1.3-.5,1.1-1.2,1.7-1,.2,0,.2.1.3.2,0,0,0,0,0,0,.5-1,.9-2,1.4-2.9,0,0,0,0,0,0-.3,0-.8-.1-1.1-.2-.9-.1-2.1-.3-3-.2-.5.1-.9.4-1.2.7,0,0,0-.1,0-.2,0,0,.3-.3.3-.3,1.5-1.2,3.6-.5,5.3-.2,1-1.4,2.8-2.3,4.5-1.9,1.6.3,1.7,1.7.2,2.3-.9.4-2.1.3-3.1.2-.4,0-.9-.1-1.3-.2-.3.6-.6,1.2-.8,1.8-.4.8-.7,1.6-1.1,2.5-.2.5-.5,1.1-.4,1.7.2,0,.4,0,.5-.2.4-.3.7-.7,1.1-1.1l.8-2h.5c-.3.9-.8,1.7-1,2.6,0,.1-.2.5-.1.6,0,0,.1,0,.2,0,.3-.1,1.1-.9,1.2-1.2l.8-2h.5l-.3.8c.3-.4,1-1,1.6-.8.1,0,.2.2.2.3.1.6-.7,1.9-.9,2.6,0,.1,0,.3.1.3.3-.1,1.2-1.1,1.3-1.3.2-.4.3-.7.7-1.1.4-.5,1.3-1.2,1.8-.5v-.2ZM264.4,34.1s0,0,0,0c.8.3,2.6.4,3.5.3.6,0,1.7-.5,1.6-1.3,0-.8-1.4-1-2-.9-1.3,0-2.5.8-3.2,1.9ZM253.9,39.1c.6,0,1.2-.4,1.4-1,0-.2.2-.6,0-.8,0,0-.2,0-.3,0-.5.1-1,1.3-1.1,1.8ZM248.8,40.2c-.2,0-.6,0-.7.1-.1.2.2.2.3.2,0,0,.4-.2.3-.3ZM258.8,37.5c0-.1-.3-.2-.4-.2-.7,0-1.4,1.4-1.5,2-.2.6-.2,1.5.6.7.7-.7,1-1.6,1.4-2.5ZM262.3,37.5c0-.2-.3-.3-.4-.3-.7,0-1.3,1.4-1.5,2-.2.9,0,1.5.7.6.6-.7.9-1.5,1.2-2.3ZM270.9,37.4c-.1-.1-.3-.2-.5-.1-.7.2-1.3,1.6-1.4,2.2-.2,1,.2.9.8.3.6-.7.9-1.5,1.2-2.3,0,0,0-.1,0-.2ZM269.8,42.7v-.2c.1,0,.1.3.1.3h0v-.4c-.1,0-.1.1-.2.2,0,0,0-.2-.2-.2v.4h0v-.3s.1.2.1.2ZM263.5,45v-1.3h.5v-.3h-1.2v.3h.5v1.3h.3ZM249.9,49.7c-.5,0-.5-.8,0-.8.7,0,.7,1,0,.8ZM249.9,49.1c-.2,0-.2.3,0,.4.4.1.4-.5,0-.4ZM259.7,47.7l.7-1.5h.3s.6,1.5.6,1.5h-.3s-.1-.4-.1-.4h-.7c-.2.2,0,.4-.4.4ZM260.3,47.1h.5c0-.2-.2-.4-.2-.6,0,.2-.2.4-.2.6ZM256,49.5h-.7v-.6h-.3v1.5h0c0,0,.2,0,.3,0v-.6h.7v.6c0,0,.2,0,.3,0v-1.5h-.3v.6ZM254.3,45h-.3s.7-1.5.7-1.5h.3s.6,1.5.6,1.5h-.3c0-.1,0-.4-.2-.4-.2,0-.4,0-.6,0l-.2.4ZM254.6,44.4h.5c0-.2-.1-.4-.3-.6l-.2.6ZM260.3,43.8c0,0,0-.2,0-.3h-1.1v1.5h1.1v-.3h-.9v-.4h.8v-.3h-.8v-.4h.9ZM259.1,46.3c.3.2.3.6,0,.8,0,0-.2.1-.3.1h-.4v.5h-.3v-1.5h.7s.2,0,.2,0ZM259,46.6s-.1-.1-.2-.1h-.4v.5h.4c.2,0,.3-.2.2-.4ZM253.5,43.8v-.3h-1.1v1.5h1.1v-.3h-.9v-.4h.8v-.3h-.8v-.4h.8ZM258.2,49.1c0,0,0-.2,0-.3h-1.1v1.5h0s1.1,0,1.1,0v-.3h-.9v-.4h.8c0,0,0-.2,0-.3h-.7v-.4h.8ZM257.3,47.7v-1.5c0,0-.2,0-.3,0,0,0-.3.5-.4.6,0,0,0,0,0,0,0,0-.3-.6-.4-.7,0,0-.2,0-.3,0v1.5h.3v-1l.5.7.5-.7v1h.3ZM254.3,47.8c-1,0-1-1.4-.1-1.6,1.2-.2,1.2,1.6.1,1.6ZM254.2,46.4c-.5.1-.5,1.2.3,1,.6-.1.5-1.2-.3-1ZM263.3,47.7v-1.5h-.3v1l-.8-1h-.3s0,1.5,0,1.5h.3v-1l.8,1h.3ZM261.6,50l-.4-1.1h-.2s-.4,1.1-.4,1.1l-.3-1.1s-.2,0-.3,0c0,0,0,0,0,0l.5,1.5h.2s.4-1.1.4-1.1l.4,1.1h.2s.5-1.5.5-1.5h-.3s-.4,1.1-.4,1.1ZM261.4,44.8c0,0-.2-.1-.2-.1l-.2.2c.4.4,1.3.3,1.2-.4,0-.3-.6-.3-.8-.4,0,0,0-.2,0-.3.2-.1.5.1.6,0v-.2c0-.1-.3-.2-.5-.2-.3,0-.5.3-.4.6.1.4.8.3.8.5,0,.3-.3.3-.5.2ZM253.1,49.1h.5v1.3h.3v-1.3h.5v-.3h-1.2v.3ZM264.1,47.7h.3v-1.5h-.3v1.5ZM263.5,50.4c-1,0-1.1-1.4-.2-1.6,1.2-.2,1.2,1.5.2,1.6ZM263.4,49.1c-.6.1-.5,1.2.3,1,.5-.1.5-1.2-.3-1ZM256.3,43.5v1.5h0s1,0,1,0v-.3h-.8v-1.3c0,0-.2,0-.3,0ZM243.6,48.8s0,0,0,.1,0,0,0,.1c0,0,0,0,0,.1,0,0,0,0-.1,0,0,0,0,0-.1,0s0,0-.1,0,0,0-.1,0c0,0,0,0,0-.1,0,0,0,0,0-.1s0,0,0-.1c0,0,0,0,0-.1,0,0,0,0,.1,0,0,0,0,0,.1,0s0,0,.1,0c0,0,0,0,.1,0,0,0,0,0,0,.1ZM243.5,49s0,0,0-.1c0,0,0,0,0,0,0,0,0,0,0,0,0,0,0,0-.1,0s0,0-.1,0c0,0,0,0,0,0,0,0,0,0,0,0,0,0,0,0,0,.1s0,0,0,.1c0,0,0,0,0,0,0,0,0,0,0,0,0,0,0,0,.1,0s0,0,.1,0c0,0,0,0,0,0s0,0,0,0c0,0,0,0,0-.1ZM217.1,50.4h.4v-1.7h-.4v1.7ZM220.9,39.4v3.1h2v-.3h-1.4s0-2.8,0-2.8h-.5ZM220.6,48.9h.5v1.5h.4v-1.5h.5v-.2h-1.4v.2ZM219.7,49.8l-1-1.1h-.3s0,1.7,0,1.7h.3v-1.1l1.1,1.2h.2v-1.8h-.3v1.1ZM218.6,45.7c0,0-.2,0-.3,0h-.7v1.2h-.5v-2.9h1.2c0,0,.3,0,.4.1.6.3.5,1.2,0,1.5ZM218.2,44.4s-.2,0-.2,0h-.5v1.2h.5s.2,0,.2,0c.4-.2.4-.8,0-1ZM224,41.5v-2.1h-.6v1.9c0,1,1.2,1.5,2,.9.3-.2.5-.6.5-1.1,0-.6,0-1.2,0-1.8h-.5v2c0,.2-.2.6-.4.7-.5.3-1-.2-1-.7ZM230.2,41.4c0,1.1,1.5,1.5,2.2.7,0-.1.3-.5.3-.6v-2.1h-.5v2c0,.2-.1.5-.2.6-.3.4-.9.3-1.1-.2,0,0,0-.3,0-.3v-2.1h-.6v2ZM237.6,46.7h-1.4s0-2.6,0-2.6h-.5v2.9h1.9v-.3ZM227.7,47v-2.7h.8s0-.2,0-.2h-2.2v.3h.8s0,2.7,0,2.7h.5ZM238.2,41.1l1.2-1.7h-.4l-.9,1.4h0s-.9-1.4-.9-1.4h-.7l1.2,1.7v1.4h.6v-1.4ZM235.1,41.2l1.2,1.3h-.7c-.4-.4-.7-.8-1.1-1.2,0,0,0,0-.1,0v1.3h-.5v-3.1c.4,0,.9,0,1.3,0,.4,0,.8.4.9.8,0,.6-.4.9-.9,1ZM235.1,39.8c0,0-.3,0-.3,0h-.4v1.3h0s.4,0,.4,0c0,0,.3,0,.3,0,.5-.2.5-1,0-1.2ZM227.3,32v5.7h2.1v-.2h-1.5v-5.5h-.6ZM230.9,32.9h-.6v4.8h.6v-4.8ZM228.8,32v4.8h.6v-4.6h1.5c.2,0,.5.2.7.3.3.4.3,1.8,0,2.2-.1.2-.3.2-.3.4.6-.2,1.1-.8,1.1-1.4,0-1.1-.4-1.8-1.6-1.8-.7,0-1.3,0-2,0ZM222.7,50.4h1.3v-.2h-.8s0,0,0,0v-.6h.8v-.2h-.8v-.5h.8v-.2h-1.3v1.7ZM229.3,47h.5v-1.3h1.3v-.3h-1.2s0,0,0,0h0v-1.1h1.4s0-.2,0-.2h-1.9v2.9ZM221,47c-1.7-.2-1.7-2.8,0-3,2.4-.3,2.3,3.2,0,3ZM221.1,44.3c-.5,0-.8.7-.8,1.2,0,.7.5,1.6,1.3,1.2,1.1-.5.8-2.6-.5-2.4ZM241.2,47c-1.7-.2-1.7-2.8,0-3,2.4-.3,2.3,3.2,0,3ZM241.3,44.3c-1.1.2-1.1,2.3,0,2.5,1.4.2,1.4-2.7,0-2.5ZM231.3,48.9h.5v1.5h.4v-1.5h.5v-.2h-1.4v.2ZM233.9,46.9c-1.2.4-2.3-.6-2-1.8.1-.5.7-1,1.2-1.1,1.9-.2,2.4,2.3.8,2.9ZM233.2,44.3c-1.2.2-1.1,2.6.2,2.5,1.3-.1,1.2-2.7-.2-2.5ZM238.5,47h.5v-2.9h-.5v2.9ZM238.4,49.8l-1.1-1.1h-.2s0,1.7,0,1.7h.3s0-1.1,0-1.1l1.1,1.2h.2v-1.8h-.3v1.1ZM236.4,49.7c-.2,1-1.9.9-1.8-.4,0-.4.3-.7.7-.8.7,0,1.2.4,1.1,1.1ZM235.5,48.9c-.3,0-.4.5-.4.7,0,.7.8.8.9.1,0-.3,0-.9-.5-.9ZM233.4,50.4h.4v-1.7h-.4v1.7ZM225.7,49.7l.7.7h-.5l-.6-.7v.7h-.4v-1.7c.3,0,.7,0,.9,0,.2,0,.4.2.4.3.1.3-.1.6-.5.7ZM225.7,49.2c0-.3-.3-.3-.5-.3v.6c.2,0,.5,0,.5-.3ZM225.3,47l-1.2-1.3v1.3h-.5v-2.9c.4,0,.8,0,1.2,0,1.1.1,1.3,1.5,0,1.7,0,0,0,0,0,0l1.1,1.2h-.7ZM224.7,45.6s.2,0,.2,0c.5-.3.3-1.2-.3-1.2h-.5v1.2h.6ZM230.2,48.6l.8,1.8h-.5l-.2-.5h-.7s-.2.4-.2.5c0,0-.2,0-.3,0l.9-1.8h.2ZM230.2,49.6l-.2-.5s0,0,0,0c0,.1-.1.3-.2.4h.4ZM240.3,48.6l.8,1.8h-.5l-.2-.5h-.7s-.2.5-.2.5h-.3s.8-1.7.8-1.7h.2ZM240.3,49.6l-.2-.5s-.2.4-.2.5h.4ZM243.3,49v.2c.1,0,0,0,0,0v-.2h-.2v.2h0v-.4h.2c.1,0,.2,0,.2.1s0,0,0,0,0,0,0,0ZM243.3,49s0,0,0,0c0,0,0,0,0,0,0,0,0,0,0,0s0,0,0,0c0,0,0,0,0,0,0,0,0,0,0,0,0,0,0,0,0,0h0c0,.1,0,.1,0,.1,0,0,0,0,0,0ZM242.1,48.7h-.4v1.7h1.3v-.2h-.8v-1.5ZM228.3,40.8l1.1-1.4h-.4l-.8,1.1h0s-.8-1.1-.8-1.1h-.6l1.1,1.6-1.1,1.5h.4l.9-1.2.9,1.2h.7l-1.2-1.7ZM228.3,49.8l-1.1-1.1h-.2s0,1.8,0,1.8h.3v-1.1s1.1,1.2,1.1,1.2h.2v-1.8h-.3v1.1ZM338.7,47.4c.3.3.2.9,0,1.3-.3.7-1.4.7-2,.7v1.4h-.8v-3.9c.8,0,2.3-.3,2.8.4ZM338.1,48.1c0-.3-.1-.6-.4-.8,0,0-.2,0-.2,0h-.7v1.6c.6.2,1.4,0,1.4-.8ZM333.9,48.3c.2,1.1-.2,2.2-1.4,2.5-3,.7-3.3-3.7-.7-4,1-.1,1.9.4,2.1,1.5ZM331.7,47.3c-1.1.2-.9,2.8.2,3.1,1.7.5,1.6-3.4-.2-3.1ZM341.5,49.1h0s1.4,0,1.4,0v-.4h-1.5v-1.2c.5,0,1,0,1.5.1v-.5c0,0,0,0,0,0h-2.3v3.9h2.5v-.6c-.5.1-1.1.1-1.7.1v-1.3ZM306.9,50.1c-.3,1-2.1.9-2.9.8,0,0,0,0,0,0v-3.8c.6,0,1.1,0,1.6,0,.4,0,.9.2,1,.6.1.4,0,.7-.4,1l-.3.2c.7.1,1.1.6.9,1.4ZM304.9,48.6c.5.1,1.1,0,1.1-.7,0-.6-.6-.7-1.1-.6v1.3ZM306.1,49.4c0-.1-.4-.4-.5-.4h-.7v1.4c.7.3,1.5-.2,1.2-1ZM364.5,39.8l-75.6,2.5v.5h75.6v-3.1ZM314.8,46.9s0,0,0,0h-.7s0,0,0,0v3.9h2.3v-.5c-.5,0-1,.1-1.5.1v-3.5ZM310.9,47l1.4,3.8h-.9l-.4-1.1h-1.5s-.4,1.1-.4,1.1h-.7l1.5-3.9h.9ZM310.8,49.2l-.6-1.6-.6,1.6h1.1ZM323.3,47.4c.3.4.2,1,0,1.3-.4.7-1.3.7-2,.7v1.4h-.8v-3.9c.7,0,2.3-.2,2.8.4ZM322.5,47.5c0,0-.3-.1-.3-.1h-.7v1.6c.3,0,.8,0,1.1-.1.4-.3.4-1.1,0-1.4ZM328.3,47.8c0-.6-.5-.8-1-.9-.7-.1-1.3,0-2,0v3.8h.8v-3.5c.2-.1.6-.1.8,0,.5.1.7.7.5,1.2-.2.3-.5.4-.9.4v.4s1.2,1.6,1.2,1.6h.9l-1.3-1.7c.6-.2,1.1-.6,1-1.3ZM347,49.1c.2-.1.4-.1.6-.3.4-.3.5-1.1.1-1.5-.5-.6-2-.3-2.7-.3v3.8h.8s0,0,0,0v-3.4c.7-.3,1.6.1,1.3,1-.1.4-.5.5-.9.5v.3s1.1,1.6,1.1,1.6h1l-1.3-1.7c0,0,0,0,0,0ZM364.5,49.5c0-.4-.4-.7-.7-.8-.4-.2-1.4-.3-1.2-1,.2-.6,1.3-.2,1.7,0v-.7c-.2,0-.4,0-.6-.1-.7,0-1.7,0-1.9.8-.2.6,0,1,.6,1.3.4.2,1.3.3,1.3.9,0,.9-1,.6-1.5.4,0,0-.4-.3-.5-.3,0,.1,0,.6,0,.7,0,0,.3.1.4.1.8.2,2.2.2,2.3-.9,0,0,0-.3,0-.4ZM341.3,31.3c-.4-3.9,1.9-7.3,5.9-7.7,3.7-.3,5.9,1.8,6.2,5.4,0,.1,0,.5,0,.6,0,0,0,0,0,.1h-8.1c0,.2,0,.3,0,.5.1,3.2,1.8,5.1,5.1,4.9.9,0,1.7-.4,2.4-.9l.4.4c-.9,1.3-2.6,2.1-4.2,2.3-3.8.5-7.3-1.7-7.8-5.7ZM345.3,28.8h4c0-1.1,0-2.3-.4-3.3-.6-1.4-1.9-1.3-2.7-.1-.6,1-.9,2.3-.9,3.4ZM358.2,35.9c-1.9-.2-2.8-2-3.4-3.5l-.7.2v3.7c1.8.6,3.6.9,5.4.8,2.8-.2,5.3-1.8,4.9-4.9-.4-3-3.9-2.9-5.8-4.4-1.2-1-.7-3.1.9-3.2,2-.2,3.1,1.5,3.6,3.2l.7-.2v-3.2c-.2-.1-.5-.2-.6-.2-2.8-1-8-.8-8.7,2.9-.4,2.1.8,3.4,2.5,4.1,1.1.5,3.6,1,3.8,2.5.1,1.6-1.1,2.4-2.6,2.2ZM298.7,36s0,0,0,0c-.8-.1-1.6,0-2.1-.7-.6-.7-.6-2.4-.7-3.3,0-1.1,0-2.3,0-3.4,0-.1,0-.2,0-.3.9,0,1.8,0,2.6.2,1,.3,1.4,1.4,1.6,2.4h.8v-6.1h-.7c-.2.4-.2.9-.5,1.3-.6,1.2-1.4,1.1-2.6,1.2-.4,0-.8,0-1.3,0v-3c0-1.2,0-2.4.1-3.7,0,0,0-.6,0-.6,1.2,0,2.6-.1,3.8,0,2.1.3,3.1,2.1,3.6,4,0,0,0,0,0,0,.1,0,.7-.2.8-.2,0,0,0,0,0,0v-5h-15.4v.7c.8.1,1.5.1,2.1.8.6.8.6,2.7.6,3.7.1,2.7.1,5.4,0,8.1,0,1.1,0,2.9-1,3.5-.5.3-1,.3-1.5.3h0v.7h9.8v-.7ZM358.3,50.4v-1.3h0s1.4,0,1.4,0v-.4h-1.5v-1.2c.5,0,1,0,1.5.1v-.5c0,0,0,0,0,0h-2.3v3.9h2.5v-.6c-.5.1-1.1.1-1.6.1ZM354.6,46.9v3.9h.8v-3.9h-.8s0,0,0,0ZM327.4,20.4c-.3-.3-.9-.4-1.3-.4v-.5s5.6-1.1,5.6-1.1h.2v6c0,0,.6-.3.8-.4,3.5-1.3,6.7.5,7.4,4.1.5,2.6-.2,5.6-2.3,7.3-2,1.6-4.6,1.7-7,1.4-1-.1-1.9-.3-2.8-.5.1-1.3,0-2.7,0-4,0-3.1,0-6.1,0-9.2,0-.7,0-2.3-.5-2.8ZM331.8,25.4c0,2.1,0,4.3,0,6.4,0,1,0,2.1,0,3.1,0,.4,0,.7,0,1.1.6,0,1.2.2,1.8,0,1.5-.7,2.1-2.9,2.3-4.4.3-2.4,0-6.7-3.4-6.4-.2,0-.7.1-.8.2,0,0,0,0,0,0ZM308.5,23.6c3.8-.2,6.7,1.7,7.1,5.6.5,4.9-2.8,8.4-7.8,7.8-3.8-.5-5.6-3.5-5.4-7.1.2-3.5,2.6-6,6.1-6.3ZM307.8,35.6c.9,1,2.2.7,2.9-.4.9-1.5.9-4.8.8-6.5-.1-1.5-.7-4.5-2.8-4.3-1.7.2-2,2.5-2.2,3.8-.2,2-.2,5.9,1.3,7.4ZM323.8,36c-.9,0-1.8,0-2.1-1-.2-.6-.2-1.3-.2-1.9,0-1.4,0-2.8,0-4.2,0-.4,0-.9,0-1.3,0-.3.6-.6.9-.7.8-.2,1.8,0,2.5.3,0,0,.6.3.6.3l1.4-3.5c-2.2-1.2-4.6.4-5.4,2.5v-2.9s-5.8,1.1-5.8,1.1v.5c.5,0,1,0,1.3.4.5.5.5,1.9.5,2.6,0,1.6,0,3.1,0,4.7,0,.7,0,2.2-.5,2.7-.3.3-.9.3-1.3.4v.7h8.1v-.7ZM349.6,47.4h1.2v3.4h.8v-3.4h1.2v-.5h-3.3v.5ZM302.1,49.2c-.2,2-3.2,2.4-3.8.5-.4-1.3.2-2.7,1.7-2.8,1.5-.1,2.2.9,2.1,2.3ZM299.8,47.3c-1.2.2-.9,3.5.7,3.1,1.2-.3.9-3.3-.7-3.1ZM291.6,50.4c-1.4.3-2-.9-1.8-2.2.2-1.4,1.5-1.1,2.4-.5v-.7c0,0,0,0,0,0-.2,0-.8-.1-1.1-.2-1.4,0-2.3.6-2.3,2,0,1.6,1.2,2.2,2.7,1.9.1,0,.7-.2.7-.2v-1.6h-.7v1.5ZM295.2,47c0,0,0,0,0,0h-.7v3.9h2.3v-.5c-.5,0-1,.1-1.5.1v-3.4ZM217.2,22.1c0,0-.1,0-.1,0s0,0,0,0,.1,0,.3,0h.3c.2,0,.3,0,.4,0s.1,0,.1,0,0,0-.2,0c-.2,0-.3,0-.3-.3v-1s0,0,0,0h.1c.2,0,.3,0,.3.3,0,.1,0,.2,0,.2s0,0,0-.1,0-.2,0-.4,0-.3,0-.3,0-.1,0-.1,0,0,0,.1c0,.2-.1.2-.3.2h-.1s0,0,0,0v-1c0-.2,0-.2.3-.2.3,0,.5.1.6.4,0,.2,0,.2.1.2s0,0,0-.2c0-.1,0-.2,0-.4,0,0,0-.2-.1-.2h-1.3c-.2,0-.2,0-.3,0s0,0,0,0,0,0,.1,0c.2,0,.2,0,.2.3v2.3c0,.2,0,.2-.2.3ZM218.9,21.1c0-.7.4-1.2,1-1.2s.9.5.9,1.2-.4,1.2-1,1.2-.9-.5-.9-1.2ZM219.3,21.1c0,.7.2,1.1.5,1.1s.6-.3.6-1-.2-1.1-.5-1.1-.6.3-.6,1ZM220.8,20.1c.1,0,.2,0,.2.3v1.2c0,.5.3.7.6.7s.4-.1.5-.3c0,0,0,0,0,0,0,0,0,.2,0,.2,0,0,0,0,.1,0,.2,0,.4,0,.5,0,0,0,0,0,0,0-.1,0-.2,0-.2-.2v-1.4c0-.2,0-.3,0-.5s0,0,0,0h-.3c-.1,0-.2,0-.2,0s0,0,0,0,0,0,0,0c.1,0,.2,0,.2.3v1.2c0,.3-.2.5-.4.5s-.4-.1-.4-.6v-.9c0-.2,0-.3,0-.5s0,0,0,0h-.3c-.1,0-.2,0-.2,0s0,0,0,0,0,0,0,0ZM223,20.5c0,0,.1,0,.1.2v1.2c0,.2,0,.2-.1.2,0,0,0,0,0,0s0,0,0,0,0,0,.2,0h.3c.1,0,.2,0,.2,0s0,0,0,0,0,0,0,0c-.1,0-.2,0-.2-.2v-1.1c0-.3.2-.6.5-.6s.3.2.3.6v1c0,.2,0,.2-.1.2,0,0,0,0,0,0s0,0,0,0,0,0,.2,0h.3c.1,0,.2,0,.2,0s0,0,0,0,0,0,0,0c-.1,0-.2,0-.2-.2v-1.1c0-.5-.2-.8-.6-.8s-.4,0-.5.3c0,0,0,0,0,0s0-.1,0-.2c0-.1,0-.1-.1,0,0,.1-.2.2-.3.3,0,0-.1,0-.1,0s0,0,.1.1ZM225,21.2c0-.7.4-1.3,1-1.3s.3,0,.4,0v-.7c0-.1,0-.2-.1-.2-.1,0-.1,0-.1,0s0,0,0,0c.1,0,.3-.1.4-.2,0,0,.1,0,.1,0s0,.3,0,.5v2.5c0,.1,0,.2.2.2,0,0,0,0,0,0,0,0-.3,0-.4,0s-.1,0-.1,0c0,0,0,0,0,0,0,0,0,0,0,0-.2.1-.3.2-.5.2-.5,0-.8-.5-.8-1.1ZM225.4,21.1c0,.6.2,1,.6,1s.4-.1.4-.4v-1.1c0-.3-.1-.6-.4-.6s-.6.2-.6,1ZM227.2,20.5c0,0,.1,0,.1.2v1.2c0,.2,0,.2-.1.2,0,0,0,0,0,0s0,0,0,0,0,0,.2,0h.3c.1,0,.1,0,.2,0s0,0,0,0,0,0,0,0c-.1,0-.1,0-.1-.2v-1.8c0-.1,0-.1-.1,0,0,.1-.2.2-.4.3,0,0-.1,0-.1,0s0,0,.1.1ZM227.5,19.7c.1,0,.2-.1.2-.3s0-.3-.2-.3-.2.1-.2.3,0,.3.2.3ZM228.2,20.5c0,0,.1,0,.1.2v1.2c0,.2,0,.2-.1.2,0,0,0,0,0,0s0,0,0,0,0,0,.2,0h.3c.1,0,.2,0,.2,0s0,0,0,0,0,0,0,0c-.1,0-.2,0-.2-.2v-1.1c0-.3.2-.6.5-.6s.3.2.3.6v1c0,.2,0,.2-.1.2,0,0,0,0,0,0s0,0,0,0,0,0,.2,0h.3c.1,0,.2,0,.2,0s0,0,0,0,0,0,0,0c-.1,0-.2,0-.2-.2v-1.1c0-.5-.2-.8-.6-.8s-.4,0-.5.3c0,0,0,0,0,0s0-.1,0-.2c0-.1,0-.1-.1,0,0,.1-.2.2-.3.3,0,0-.1,0-.1,0s0,0,.1.1ZM230.1,20.7c0-.5.3-.8.8-.8s.4,0,.5.2c0,0,0,0,0,0h.4s0,0,0,0h0c0,.1,0,.1,0,.1h-.2s0,0,0,0,0,0,0,0c0,0,0,.2,0,.3,0,.5-.3.8-.8.8s-.3,0-.3.2.1.2.3.2h.4c.4,0,.6.2.6.5,0,.5-.5.9-1.1.9s-.8-.2-.8-.5.1-.3.4-.6c0,0,0,0,0,0-.2,0-.3-.2-.3-.4s.1-.2.3-.3c0,0,0,0,0,0-.2-.1-.4-.4-.4-.7ZM230.4,22.7c0,.3.2.5.5.5s.6-.2.6-.6-.2-.3-.6-.3h-.3s0,0,0,0c-.1.1-.2.3-.2.4ZM230.6,20.7c0,.4.1.7.3.7s.4-.2.4-.6-.1-.7-.3-.7-.4.2-.4.6ZM232.8,22.2c0,0,.1,0,.3,0h0c.2,0,.2,0,.3,0,0,0,0,0,0,0,0,0,0,0-.1,0-.2,0-.2,0-.2-.3v-2.1c0,0,.1,0,.1,0l.7,2.4s0,0,0,0,0,0,0,0l.7-2.4s0,0,0,0v2.1c0,.2,0,.2-.1.3,0,0-.1,0-.1,0s0,0,0,0,.1,0,.3,0h.3c.2,0,.2,0,.3,0,0,0,0,0,0,0,0,0,0,0-.1,0-.2,0-.2,0-.2-.3v-2.3c0-.2,0-.2.1-.3,0,0,0,0,0,0s0,0,0,0-.4,0-.5,0h0c0,0-.1,0-.2.1l-.6,1.9c0,0,0,0,0,0l-.6-1.9c0,0,0-.1-.2-.1h0c0,0-.4,0-.5,0,0,0,0,0,0,0,0,0,0,0,.1,0,.2,0,.2,0,.2.3v2.3c0,.2-.1.2-.3.3,0,0-.1,0-.1,0s0,0,0,0ZM235.7,21.2c0-.7.4-1.2.9-1.2s.7.3.7.7,0,.2,0,.2h-1.1c0,0,0,.2,0,.2,0,.6.3,1,.7,1s.3,0,.4-.3c0,0,.1,0,.1,0,0,.3-.4.5-.7.5-.6,0-.9-.5-.9-1.2ZM236.2,20.6c0,0,0,0,0,0h.3c.2,0,.4-.1.4-.3s-.1-.3-.3-.3-.4.2-.4.5ZM237.6,20.5c0,0,.1,0,.1.2v1.2c0,.2,0,.2-.1.2,0,0,0,0,0,0s0,0,0,0,0,0,.2,0h.3c.1,0,.2,0,.2,0s0,0,0,0,0,0,0,0c-.1,0-.2,0-.2-.2v-1c0-.4.2-.6.4-.6s.3.2.3.6v1c0,.2,0,.2-.1.2,0,0,0,0,0,0s0,0,0,0,0,0,.2,0h.3c.1,0,.2,0,.2,0s0,0,0,0,0,0,0,0c-.1,0-.2,0-.2-.2v-1c0-.4.2-.6.4-.6s.3.2.3.6v1c0,.2,0,.2-.1.2,0,0,0,0,0,0s0,0,0,0,0,0,.2,0h.3c.1,0,.2,0,.2,0s0,0,0,0,0,0,0,0c-.1,0-.2,0-.2-.2v-1.1c0-.5-.2-.8-.6-.8s-.3,0-.5.4c0,0,0,0,0,0,0-.2-.3-.3-.5-.3s-.3.1-.5.3c0,0,0,0,0,0s0-.1,0-.2c0-.1,0-.1-.1,0,0,.1-.2.2-.3.3,0,0-.1,0-.1,0s0,0,.1.1ZM240.4,19.1s0,0,0,0c.1,0,.3-.1.4-.2,0,0,.1,0,.1,0s0,.3,0,.5v.9c.2-.2.4-.4.6-.4.4,0,.8.5.8,1.1s-.4,1.3-1,1.3-.4-.1-.5-.1,0,.1-.2.1,0,0,0,0c0,0,0-.1,0-.3v-2.6c0-.1,0-.2-.1-.2-.1,0-.1,0-.1,0ZM241,20.8v.8c0,.3.1.6.4.6s.6-.2.6-1-.3-1-.5-1-.4.2-.4.6ZM244.2,21.8c0,.3-.4.5-.7.5-.6,0-.9-.5-.9-1.2s.4-1.2.9-1.2.7.3.7.7,0,.2,0,.2h-1.1c0,0,0,.2,0,.2,0,.6.3,1,.7,1s.3,0,.4-.3c0,0,.1,0,.1,0ZM243.1,20.6c0,0,0,0,0,0h.3c.2,0,.4-.1.4-.3s-.1-.3-.3-.3-.4.2-.4.5ZM245.4,20c-.1,0-.2,0-.4.3,0,0,0,0,0,0s0-.1,0-.2c0-.1,0-.1-.1,0,0,.1-.2.2-.3.3,0,0-.1,0-.1,0s0,0,.1.1c0,0,.1,0,.1.2v1.2c0,.2,0,.2-.1.2,0,0,0,0,0,0s0,0,0,0,0,0,.2,0h.3c.1,0,.2,0,.2,0s0,0,0,0,0,0,0,0c-.1,0-.2,0-.2-.2v-1.1c0-.3.2-.5.3-.5s.1.2.3.2.2-.1.2-.2-.1-.3-.3-.3ZM248.1,22c-.2.2-.4.3-.7.3-.4,0-.8-.3-.8-.8s.2-.6.6-1c-.1-.3-.2-.6-.2-.8,0-.4.3-.8.7-.8s.6.2.6.5-.2.6-.7.9c.1.2.2.4.4.6.1.2.2.3.3.4,0-.2.2-.4.3-.6,0-.2,0-.2-.2-.2-.1,0-.2,0-.2,0s0,0,.1,0,.2,0,.4,0h0c.1,0,.2,0,.2,0s0,0,0,0,0,0,0,0c-.1,0-.2,0-.3.2,0,.3-.2.6-.3.8.2.2.3.3.4.3s.2-.2.3-.4c0,0,0,0,0,0s0,0,0,0c0,.4-.3.7-.5.7s-.4,0-.6-.3ZM247.4,19.7c0,.1,0,.4.2.6.3-.2.4-.5.4-.8s-.1-.4-.3-.4-.3.2-.3.6ZM248,21.8c0,0-.2-.2-.2-.3-.2-.3-.3-.5-.4-.8-.2.2-.3.4-.3.6,0,.3.3.6.6.6s.3,0,.4-.1ZM250.9,22.3c.5,0,.8-.4.8-.9s-.2-.6-.5-.9l-.6-.5c-.1-.1-.2-.3-.2-.5s.2-.4.4-.4.5.2.6.6h0c0,.2,0,.2,0,.2h0s0,0,0,0v-.5c0,0,0,0,0-.1-.2-.1-.5-.2-.7-.2-.4,0-.8.4-.8.9s.1.5.4.8l.4.3c.3.3.5.5.5.7s-.2.5-.4.5-.5-.3-.7-.8c0-.1,0-.2,0-.3,0,0,0,0,0,0s0,0,0,0v.9c0,0,0,.1,0,.2.2,0,.5.2.7.2ZM251.8,22.1c0,0-.1,0-.1,0s0,0,0,0,.1,0,.3,0h.3c.1,0,.2,0,.2,0s0,0,0,0,0,0,0,0c-.1,0-.2,0-.2-.3v-1.1c0-.3.2-.6.5-.6s.3.2.3.6v1c0,.2,0,.2-.1.2,0,0,0,0,0,0s0,0,0,0,0,0,.2,0h.3c.1,0,.1,0,.2,0s0,0,0,0,0,0,0,0c-.1,0-.1,0-.1-.2v-1.1c0-.5-.2-.8-.6-.8s-.4,0-.5.3c0,0,0,0,0,0v-.8c0-.2,0-.3,0-.5s0-.1-.1,0c-.1,0-.3.1-.4.2,0,0,0,0,0,0s0,0,.1,0c0,0,.1,0,.1.2v2.5c0,.2,0,.2-.2.3ZM254.8,20.9s0,0,0,0v-.4c0-.3-.1-.4-.3-.4s-.3.1-.3.4,0,.3-.2.3-.2-.1-.2-.2c0-.4.3-.6.7-.6s.6.3.6.7c0,.4,0,.8,0,1.1,0,.1,0,.2.1.2s.1,0,.2-.1c0,0,.1,0,0,0-.1.2-.3.3-.4.3-.2,0-.3-.2-.4-.4,0,0,0,0,0,0-.1.2-.4.4-.6.4s-.4-.2-.4-.5c0-.4.4-.8.9-.9ZM254.9,21c-.3,0-.6.3-.6.6s.1.3.3.3.3-.1.4-.3c0,0,0,0,0,0v-.5s0,0,0,0ZM255.9,20.5c0,0,.1,0,.1.2v1.2c0,.2,0,.2-.1.2,0,0,0,0,0,0s0,0,0,0,0,0,.2,0h.3c.1,0,.2,0,.2,0s0,0,0,0,0,0,0,0c-.1,0-.2,0-.2-.2v-1.1c0-.3.2-.5.3-.5s.1.2.3.2.2-.1.2-.2-.1-.3-.3-.3-.2,0-.4.3c0,0,0,0,0,0s0-.1,0-.2c0-.1,0-.1-.1,0,0,.1-.2.2-.3.3,0,0-.1,0-.1,0s0,0,.1.1ZM257.1,21.2c0-.7.4-1.2.9-1.2s.7.3.7.7,0,.2,0,.2h-1.1c0,0,0,.2,0,.2,0,.6.3,1,.7,1s.3,0,.4-.3c0,0,.1,0,.1,0,0,.3-.4.5-.7.5-.6,0-.9-.5-.9-1.2ZM257.6,20.6c0,0,0,0,0,0h.3c.2,0,.4-.1.4-.3s-.1-.3-.3-.3-.4.2-.4.5ZM258.9,19.2c0,0,.1,0,.1.2v2.5c0,.2,0,.2-.2.3,0,0-.1,0-.1,0s0,0,0,0,.1,0,.3,0h.3c.1,0,.2,0,.2,0s0,0,0,0,0,0,0,0c-.1,0-.2,0-.2-.3v-1.1c0-.3.2-.6.5-.6s.3.2.3.6v1c0,.2,0,.2-.1.2,0,0,0,0,0,0s0,0,0,0,0,0,.2,0h.3c.1,0,.1,0,.2,0s0,0,0,0,0,0,0,0c-.1,0-.1,0-.1-.2v-1.1c0-.5-.2-.8-.6-.8s-.4,0-.5.3c0,0,0,0,0,0v-.8c0-.2,0-.3,0-.5s0-.1-.1,0c-.1,0-.3.1-.4.2,0,0,0,0,0,0s0,0,.1,0ZM260.9,21.1c0-.7.4-1.2,1-1.2s.9.5.9,1.2-.4,1.2-1,1.2-.9-.5-.9-1.2ZM261.3,21.1c0,.7.2,1.1.5,1.1s.6-.3.6-1-.2-1.1-.5-1.1-.6.3-.6,1ZM262.9,22.1c0,0-.1,0-.1,0s0,0,0,0,.1,0,.3,0h.3c.2,0,.2,0,.3,0s0,0,0,0,0,0-.1,0c-.2,0-.2,0-.2-.3v-2.4c0-.2,0-.3,0-.5s0-.1-.1,0c-.1,0-.3.1-.4.2,0,0,0,0,0,0s0,0,.1,0c0,0,.1,0,.1.2v2.5c0,.2,0,.2-.2.3ZM263.8,21.2c0-.7.4-1.3,1-1.3s.3,0,.4,0v-.7c0-.1,0-.2-.1-.2-.1,0-.1,0-.1,0s0,0,0,0c.1,0,.3-.1.4-.2,0,0,.1,0,.1,0s0,.3,0,.5v2.5c0,.1,0,.2.2.2,0,0,0,0,0,0,0,0-.3,0-.4,0s-.1,0-.1,0c0,0,0,0,0,0,0,0,0,0,0,0-.2.1-.3.2-.5.2-.5,0-.8-.5-.8-1.1ZM264.2,21.1c0,.6.2,1,.6,1s.4-.1.4-.4v-1.1c0-.3-.1-.6-.4-.6s-.6.2-.6,1ZM265.9,21.2c0-.7.4-1.2.9-1.2s.7.3.7.7,0,.2,0,.2h-1.1c0,0,0,.2,0,.2,0,.6.3,1,.7,1s.3,0,.4-.3c0,0,.1,0,.1,0,0,.3-.4.5-.7.5-.6,0-.9-.5-.9-1.2ZM266.3,20.6c0,0,0,0,0,0h.3c.2,0,.4-.1.4-.3s-.1-.3-.3-.3-.4.2-.4.5ZM267.7,20.5c0,0,.1,0,.1.2v1.2c0,.2,0,.2-.1.2,0,0,0,0,0,0s0,0,0,0,0,0,.2,0h.3c.1,0,.2,0,.2,0s0,0,0,0,0,0,0,0c-.1,0-.2,0-.2-.2v-1.1c0-.3.2-.5.3-.5s.1.2.3.2.2-.1.2-.2-.1-.3-.3-.3-.2,0-.4.3c0,0,0,0,0,0s0-.1,0-.2c0-.1,0-.1-.1,0,0,.1-.2.2-.3.3,0,0-.1,0-.1,0s0,0,.1.1ZM271.7,21.1c0,.7-.4,1.2-1,1.2s-.9-.5-.9-1.2.4-1.2,1-1.2.9.5.9,1.2ZM271.3,21.2c0-.7-.2-1.1-.5-1.1s-.6.3-.6,1,.2,1.1.5,1.1.6-.3.6-1ZM272.8,18.8c-.5,0-.8.5-.8,1.1,0,.1-.1.2-.2.2,0,0,0,0,0,0h0s0,0,0,0h.1s0,0,0,0v1.5c0,.2,0,.2-.2.3,0,0,0,0,0,0s0,0,0,0,.1,0,.2,0h.3c.2,0,.2,0,.3,0s0,0,0,0,0,0-.1,0c-.2,0-.2,0-.2-.3v-1.5s0,0,0,0h.4s0,0,0,0h0c0-.1,0-.1,0-.1h-.4s0,0,0,0v-.5c0-.3,0-.5.2-.5s.2,0,.3.2c0,0,.1,0,.2,0s.2,0,.2-.2c0-.2-.2-.3-.5-.3ZM280.4,51.5h.7V18.6h-.7v33Z"/>
  <rect class="st1" x="189.7" y="13.3" width=".7" height="42.2"/>
</svg>