<?xml version="1.0" encoding="UTF-8"?>
<svg id="Layer_1" xmlns="http://www.w3.org/2000/svg" version="1.1" viewBox="0 0 32 32" width="30" height="30">
  <!-- Generator: Adobe Illustrator 29.3.0, SVG Export Plug-In . SVG Version: 2.1.0 Build 146)  -->
  <defs>
    <style>
      .st0 {
        fill: #055747;
      }
    </style>
  </defs>
  <path class="st0" d="M22,2h-12c-1.7,0-3,1.3-3,3v22c0,1.7,1.3,3,3,3h12c1.7,0,3-1.3,3-3V5c0-1.7-1.3-3-3-3ZM9,8h14v16h-14V8ZM10,4h12c.6,0,1,.4,1,1v1h-14v-1c0-.6.4-1,1-1ZM22,28h-12c-.6,0-1-.4-1-1v-1h14v1c0,.6-.4,1-1,1Z"/>
</svg>
