<?xml version="1.0" encoding="UTF-8"?>
<svg id="Layer_1" xmlns="http://www.w3.org/2000/svg" version="1.1" viewBox="0 0 32 32">
  <!-- Generator: Adobe Illustrator 29.3.0, SVG Export Plug-In . SVG Version: 2.1.0 Build 146)  -->
  <defs>
    <style>
      .st0 {
        fill: #054538;
      }

      .st1 {
        fill: #f7f2e5;
      }
    </style>
  </defs>
  <path class="st0" d="M30,8.6c0-3.6-3-6.6-6.6-6.6h-14.8c-3.6,0-6.6,3-6.6,6.6v14.8c0,3.6,3,6.6,6.6,6.6h14.8c3.6,0,6.6-3,6.6-6.6v-14.8Z"/>
  <path class="st1" d="M25.8,8c0,1-.8,1.8-1.8,1.8s-1.8-.8-1.8-1.8.8-1.8,1.8-1.8,1.8.8,1.8,1.8ZM32,8.6v14.8c0,4.8-3.9,8.6-8.6,8.6h-14.8C3.8,32,0,28.1,0,23.4v-14.8c0-4.7,3.9-8.6,8.6-8.6h14.8c4.8,0,8.6,3.9,8.6,8.6ZM30,8.6c0-3.6-3-6.6-6.6-6.6h-14.8c-3.6,0-6.6,3-6.6,6.6v14.8c0,3.6,3,6.6,6.6,6.6h14.8c3.6,0,6.6-3,6.6-6.6v-14.8ZM23.4,16c0,4.1-3.3,7.4-7.4,7.4s-7.4-3.3-7.4-7.4,3.3-7.4,7.4-7.4,7.4,3.3,7.4,7.4ZM21.4,16c0-3-2.4-5.4-5.4-5.4s-5.4,2.4-5.4,5.4,2.4,5.4,5.4,5.4,5.4-2.4,5.4-5.4Z"/>
</svg>