<?xml version="1.0" encoding="UTF-8"?>
<svg id="Layer_1" xmlns="http://www.w3.org/2000/svg" version="1.1" viewBox="0 0 32 32">
  <!-- Generator: Adobe Illustrator 29.3.0, SVG Export Plug-In . SVG Version: 2.1.0 Build 146)  -->
  <defs>
    <style>
      .st0 {
        fill: #054538;
      }

      .st1 {
        fill: #f7f2e5;
      }
    </style>
  </defs>
  <path class="st0" d="M16,30c-7.7,0-14-6.3-14-14S8.3,2,16,2s14,6.3,14,14-6.3,14-14,14Z"/>
  <path class="st1" d="M12,14v8c0,.6-.4,1-1,1s-1-.4-1-1v-8c0-.6.4-1,1-1s1,.4,1,1ZM23,17.5v4.5c0,.6-.4,1-1,1s-1-.4-1-1v-4.5c0-1.4-1.1-2.5-2.5-2.5s-2.5,1.1-2.5,2.5v4.5c0,.6-.4,1-1,1s-1-.4-1-1v-8c0-.6.5-1,1-1s.9.3,1,.8c2.1-1.4,4.9-.9,6.3,1.2.5.7.8,1.6.8,2.5h0ZM12.5,10.5c0,.8-.7,1.5-1.5,1.5s-1.5-.7-1.5-1.5.7-1.5,1.5-1.5,1.5.7,1.5,1.5Z"/>
  <path class="st1" d="M16,0C7.2,0,0,7.2,0,16s7.2,16,16,16,16-7.2,16-16S24.8,0,16,0ZM16,30c-7.7,0-14-6.3-14-14S8.3,2,16,2s14,6.3,14,14-6.3,14-14,14Z"/>
</svg>