<svg xmlns="http://www.w3.org/2000/svg" viewBox="0 0 25 25"><defs><style>.cls-1{fill:#23272e;}</style></defs><g id="Layer_2" data-name="Layer 2"><g id="Layer_1-2" data-name="Layer 1"><g id="Canvas"><g id="noun_555068_cc" data-name="noun 555068 cc"><g id="Vector"><path id="path0_fill" data-name="path0 fill" class="cls-1" d="M12.5,25A12.5,12.5,0,1,1,25,12.5,12.5,12.5,0,0,1,12.5,25Zm2.6-10.94a5.4,5.4,0,0,0-1.55,2,9.17,9.17,0,0,1-4.67-4.59,6.3,6.3,0,0,0,2-1.61A5.06,5.06,0,0,0,8.87,6.26,3.93,3.93,0,0,0,6.25,9.89a9.09,9.09,0,0,0,8.55,8.86,4.35,4.35,0,0,0,3.94-2.58,5,5,0,0,0-3.62-2.11Z"/></g></g></g></g></g></svg>