<svg xmlns="http://www.w3.org/2000/svg" viewBox="0 0 475.12 408.15"><defs><style>.cls-1{fill:#231f20;}</style></defs><g id="Layer_2" data-name="Layer 2"><g id="Layer_1-2" data-name="Layer 1"><path class="cls-1" d="M434.27,221.8v84.86q-21.45,6.51-39.91,6.51c-30,0-55.29-9.56-71.93-28.7s-25.94-45.89-25.94-80.28c0-34.74,8.75-61.64,24.3-80.72s39.37-28.61,67.53-28.61q22.29,0,59.76,11.06V73.54a294.54,294.54,0,0,0-59.4-6.32q-61.1,0-94.81,35.83Q270.46,127.94,263.31,167L222,65.93,167.38,199.37,112.61,65.93.29,339.52H34.58l78-192.41,78,192.41h34.29l-40.29-98.15L222,147.11,270,266.85s0,0,0-.05a111.48,111.48,0,0,0,23.39,38.71q33.18,35.31,95.34,35.3c23.47,0,51-4.52,77.57-13.56V221.8Z"/><path class="cls-1" d="M18.38.39V15.64H16.15l.31-12.79L11.11,15.64H9.36L4.1,3.05l.24,12.59H2.13V.39H5l5.2,12.51L15.48.39Z"/><path class="cls-1" d="M59.78,11H53.32l-1.89,4.66H49L55.48.39h2.36L64,15.64H61.63Zm-.67-1.71L56.64,2.92,54,9.27Z"/><path class="cls-1" d="M97.17,9.16v6.48H95V.39h6.29c2.35,0,3.75,0,5.07.93a4,4,0,0,1,1.77,3.52c0,3.56-3.19,4.06-4,4.19l4.76,6.61h-2.69l-4.61-6.48Zm0-1.68h4.49a8.74,8.74,0,0,0,2.06-.16,2.39,2.39,0,0,0,2.12-2.46,2.58,2.58,0,0,0-1-2.14,5.21,5.21,0,0,0-3.29-.65H97.17Z"/><path class="cls-1" d="M145.51,2.16V15.64h-2.28V2.16h-5.09V.37h12.43V2.16Z"/><path class="cls-1" d="M187.92,16c-5.16,0-8.48-3.26-8.48-8,0-5.67,4.35-8,8.55-8,4.75,0,8.52,2.89,8.52,7.86C196.51,12.45,193.53,16,187.92,16ZM188,1.64c-4.27,0-6.1,3-6.1,6.4,0,3.19,1.75,6.39,6.12,6.39,4.56,0,6.07-3.41,6.05-6.54C194,4.19,191.9,1.64,188,1.64Z"/><path class="cls-1" d="M242.13.39V15.64h-2L230.8,3.24l.2,12.4h-2.12V.39H231l9.19,12.23L240.09.39Z"/><path class="cls-1" d="M277.94,8.47v7.17h-2.26V.37h10.88V2.18h-8.62V6.7h8V8.47Z"/><path class="cls-1" d="M320.25,8.47v7.17H318V.37h10.88V2.18h-8.62V6.7h8V8.47Z"/><path class="cls-1" d="M366.5,8.66v7h-2.28v-7l-6-8.27h2.69l4.44,6.46L369.91.39h2.69Z"/><path class="cls-1" d="M284.4,399.7v8.06h-1.94v-2.14c-1.42,1.86-3.89,2.53-6.19,2.53-5.24,0-8.45-3.31-8.45-7.82,0-3.89,2.59-8.21,8.76-8.21a9.28,9.28,0,0,1,5.9,1.94,8,8,0,0,1,1.92,2.46l-2.33.57a4.82,4.82,0,0,0-1.17-1.8,6,6,0,0,0-4.25-1.49c-4.75,0-6.36,3.55-6.36,6.31s1.66,6.27,6.26,6.27c2.09,0,6-.93,5.91-5h-5.93V399.7Z"/><path class="cls-1" d="M320,401.28v6.48h-2.2V392.51h6.28c2.36,0,3.75,0,5.07.92a4.05,4.05,0,0,1,1.77,3.53c0,3.56-3.19,4.06-4,4.19l4.75,6.61H329l-4.61-6.48Zm0-1.69h4.49a9.44,9.44,0,0,0,2.07-.15,2.38,2.38,0,0,0,2.11-2.46,2.58,2.58,0,0,0-1-2.14,5.21,5.21,0,0,0-3.29-.65H320Z"/><path class="cls-1" d="M370.92,408.15c-5.16,0-8.47-3.26-8.47-8,0-5.66,4.34-8,8.54-8,4.76,0,8.52,2.89,8.52,7.86C379.51,404.56,376.54,408.15,370.92,408.15Zm.07-14.39c-4.27,0-6.09,3-6.09,6.4,0,3.19,1.75,6.39,6.12,6.39,4.56,0,6.07-3.41,6.05-6.55C377,396.31,374.91,393.76,371,393.76Z"/><path class="cls-1" d="M424.68,392.49v9.74a8.22,8.22,0,0,1-.21,2c-.48,1.83-2.38,3.91-6.34,3.91a6.73,6.73,0,0,1-5.21-2c-1.13-1.3-1.1-2.44-1.1-4.15v-9.46h2.28v9.18c0,1.4,0,2.59.86,3.56a4.15,4.15,0,0,0,3.17,1.19c2,0,3.55-.86,4.06-2.53a8.71,8.71,0,0,0,.21-2.27v-9.13Z"/><path class="cls-1" d="M460.34,401.3v6.46h-2.18V392.51h7.32a10,10,0,0,1,2.69.25,4.07,4.07,0,0,1,2.9,4.07,4.22,4.22,0,0,1-3.12,4.23,9.67,9.67,0,0,1-2.71.24Zm0-1.79h4.73c1.3,0,2.19,0,3-.69a2.71,2.71,0,0,0,.81-2,2.29,2.29,0,0,0-.89-1.94,3.67,3.67,0,0,0-2.37-.58h-5.24Z"/><path class="cls-1" d="M474.62,36.5H.5A.5.5,0,0,1,0,36a.5.5,0,0,1,.5-.5H474.62a.5.5,0,0,1,.5.5A.51.51,0,0,1,474.62,36.5Z"/><path class="cls-1" d="M474.62,373H.5a.5.5,0,0,1-.5-.5.5.5,0,0,1,.5-.5H474.62a.5.5,0,0,1,.5.5A.51.51,0,0,1,474.62,373Z"/></g></g></svg>